<?xml version="1.0" encoding="UTF-8" standalone="no"?>
<!DOCTYPE svg PUBLIC "-//W3C//DTD SVG 1.1//EN"
 "http://www.w3.org/Graphics/SVG/1.1/DTD/svg11.dtd">
<!-- Generated by graphviz version 2.43.0 (0)
 -->
<!-- Title: %3 Pages: 1 -->
<svg width="1999pt" height="392pt"
 viewBox="0.00 0.00 1999.12 392.00" xmlns="http://www.w3.org/2000/svg" xmlns:xlink="http://www.w3.org/1999/xlink">
<g id="graph0" class="graph" transform="scale(1 1) rotate(0) translate(4 388)">
<title>%3</title>
<polygon fill="white" stroke="transparent" points="-4,4 -4,-388 1995.12,-388 1995.12,4 -4,4"/>
<!-- fid=0, fibonacci_uncached(n=5) -->
<g id="node1" class="node">
<title>fid=0, fibonacci_uncached(n=5)</title>
<ellipse fill="none" stroke="black" cx="1237.64" cy="-366" rx="157.07" ry="18"/>
<text text-anchor="middle" x="1237.64" y="-362.3" font-family="Times,serif" font-size="14.00">fid=0, fibonacci_uncached(n=5)</text>
</g>
<!-- fid=0, fibonacci_uncached(n=5)&#45;&gt;fid=0, fibonacci_uncached(n=5) -->
<g id="edge29" class="edge">
<title>fid=0, fibonacci_uncached(n=5)&#45;&gt;fid=0, fibonacci_uncached(n=5)</title>
<path fill="none" stroke="red" d="M1383.38,-372.81C1401.22,-371.59 1412.92,-369.32 1412.92,-366 1412.92,-363.35 1405.49,-361.37 1393.45,-360.06"/>
<polygon fill="red" stroke="red" points="1393.64,-356.56 1383.38,-359.19 1393.04,-363.54 1393.64,-356.56"/>
<text text-anchor="middle" x="1534.42" y="-362.3" font-family="Times,serif" font-size="14.00" fill="red">seq=29, ret=None, max_depth=5</text>
</g>
<!-- fid=1, fibonacci_uncached(4) -->
<g id="node2" class="node">
<title>fid=1, fibonacci_uncached(4)</title>
<ellipse fill="none" stroke="black" cx="906.64" cy="-279" rx="143.77" ry="18"/>
<text text-anchor="middle" x="906.64" y="-275.3" font-family="Times,serif" font-size="14.00">fid=1, fibonacci_uncached(4)</text>
</g>
<!-- fid=0, fibonacci_uncached(n=5)&#45;&gt;fid=1, fibonacci_uncached(4) -->
<g id="edge1" class="edge">
<title>fid=0, fibonacci_uncached(n=5)&#45;&gt;fid=1, fibonacci_uncached(4)</title>
<path fill="none" stroke="blue" d="M1168.62,-349.81C1142.55,-343.89 1112.67,-336.88 1085.64,-330 1047.22,-320.22 1004.44,-308.31 970.34,-298.56"/>
<polygon fill="blue" stroke="blue" points="971.09,-295.14 960.51,-295.75 969.16,-301.87 971.09,-295.14"/>
<text text-anchor="middle" x="1111.14" y="-318.8" font-family="Times,serif" font-size="14.00" fill="blue">seq=1,</text>
</g>
<!-- fid=10, fibonacci_uncached(3) -->
<g id="node11" class="node">
<title>fid=10, fibonacci_uncached(3)</title>
<ellipse fill="none" stroke="black" cx="1458.64" cy="-279" rx="149.47" ry="18"/>
<text text-anchor="middle" x="1458.64" y="-275.3" font-family="Times,serif" font-size="14.00">fid=10, fibonacci_uncached(3)</text>
</g>
<!-- fid=0, fibonacci_uncached(n=5)&#45;&gt;fid=10, fibonacci_uncached(3) -->
<g id="edge19" class="edge">
<title>fid=0, fibonacci_uncached(n=5)&#45;&gt;fid=10, fibonacci_uncached(3)</title>
<path fill="none" stroke="blue" d="M1280.25,-348.61C1316.33,-334.74 1368.16,-314.8 1406.67,-299.99"/>
<polygon fill="blue" stroke="blue" points="1408.08,-303.2 1416.16,-296.34 1405.57,-296.66 1408.08,-303.2"/>
<text text-anchor="middle" x="1391.64" y="-318.8" font-family="Times,serif" font-size="14.00" fill="blue">seq=19,</text>
</g>
<!-- fid=1, fibonacci_uncached(4)&#45;&gt;fid=0, fibonacci_uncached(n=5) -->
<g id="edge18" class="edge">
<title>fid=1, fibonacci_uncached(4)&#45;&gt;fid=0, fibonacci_uncached(n=5)</title>
<path fill="none" stroke="red" d="M1019.65,-290.14C1057.42,-295.39 1099.37,-303.25 1136.64,-315 1158.67,-321.94 1181.86,-333.12 1200.45,-343.14"/>
<polygon fill="red" stroke="red" points="1199.01,-346.34 1209.46,-348.1 1202.38,-340.21 1199.01,-346.34"/>
<text text-anchor="middle" x="1242.14" y="-318.8" font-family="Times,serif" font-size="14.00" fill="red">seq=18, ret=None</text>
</g>
<!-- fid=2, fibonacci_uncached(3) -->
<g id="node3" class="node">
<title>fid=2, fibonacci_uncached(3)</title>
<ellipse fill="none" stroke="black" cx="580.64" cy="-192" rx="143.77" ry="18"/>
<text text-anchor="middle" x="580.64" y="-188.3" font-family="Times,serif" font-size="14.00">fid=2, fibonacci_uncached(3)</text>
</g>
<!-- fid=1, fibonacci_uncached(4)&#45;&gt;fid=2, fibonacci_uncached(3) -->
<g id="edge2" class="edge">
<title>fid=1, fibonacci_uncached(4)&#45;&gt;fid=2, fibonacci_uncached(3)</title>
<path fill="none" stroke="blue" d="M788.77,-268.62C731.24,-262.8 668.87,-254.26 642.64,-243 628.42,-236.9 614.79,-226.59 603.95,-216.91"/>
<polygon fill="blue" stroke="blue" points="606.28,-214.29 596.58,-210.04 601.51,-219.42 606.28,-214.29"/>
<text text-anchor="middle" x="668.14" y="-231.8" font-family="Times,serif" font-size="14.00" fill="blue">seq=2,</text>
</g>
<!-- fid=7, fibonacci_uncached(2) -->
<g id="node8" class="node">
<title>fid=7, fibonacci_uncached(2)</title>
<ellipse fill="none" stroke="black" cx="974.64" cy="-192" rx="143.77" ry="18"/>
<text text-anchor="middle" x="974.64" y="-188.3" font-family="Times,serif" font-size="14.00">fid=7, fibonacci_uncached(2)</text>
</g>
<!-- fid=1, fibonacci_uncached(4)&#45;&gt;fid=7, fibonacci_uncached(2) -->
<g id="edge12" class="edge">
<title>fid=1, fibonacci_uncached(4)&#45;&gt;fid=7, fibonacci_uncached(2)</title>
<path fill="none" stroke="blue" d="M897.73,-260.59C893.85,-250.38 891.43,-237.64 897.64,-228 901.08,-222.65 905.56,-218.11 910.63,-214.26"/>
<polygon fill="blue" stroke="blue" points="912.58,-217.17 919.02,-208.75 908.74,-211.32 912.58,-217.17"/>
<text text-anchor="middle" x="927.64" y="-231.8" font-family="Times,serif" font-size="14.00" fill="blue">seq=12,</text>
</g>
<!-- fid=2, fibonacci_uncached(3)&#45;&gt;fid=1, fibonacci_uncached(4) -->
<g id="edge11" class="edge">
<title>fid=2, fibonacci_uncached(3)&#45;&gt;fid=1, fibonacci_uncached(4)</title>
<path fill="none" stroke="red" d="M633.29,-208.79C667.93,-219 714.34,-232.32 755.64,-243 779.35,-249.13 805.28,-255.33 828.86,-260.76"/>
<polygon fill="red" stroke="red" points="828.28,-264.22 838.81,-263.05 829.84,-257.4 828.28,-264.22"/>
<text text-anchor="middle" x="823.14" y="-231.8" font-family="Times,serif" font-size="14.00" fill="red">seq=11, ret=None</text>
</g>
<!-- fid=3, fibonacci_uncached(2) -->
<g id="node4" class="node">
<title>fid=3, fibonacci_uncached(2)</title>
<ellipse fill="none" stroke="black" cx="298.64" cy="-105" rx="143.77" ry="18"/>
<text text-anchor="middle" x="298.64" y="-101.3" font-family="Times,serif" font-size="14.00">fid=3, fibonacci_uncached(2)</text>
</g>
<!-- fid=2, fibonacci_uncached(3)&#45;&gt;fid=3, fibonacci_uncached(2) -->
<g id="edge3" class="edge">
<title>fid=2, fibonacci_uncached(3)&#45;&gt;fid=3, fibonacci_uncached(2)</title>
<path fill="none" stroke="blue" d="M447.21,-185.2C393.88,-180.43 340.24,-171.77 319.64,-156 312.22,-150.32 307.4,-141.54 304.27,-132.91"/>
<polygon fill="blue" stroke="blue" points="307.54,-131.63 301.33,-123.04 300.84,-133.63 307.54,-131.63"/>
<text text-anchor="middle" x="345.14" y="-144.8" font-family="Times,serif" font-size="14.00" fill="blue">seq=3,</text>
</g>
<!-- fid=6, fibonacci_uncached(1) -->
<g id="node7" class="node">
<title>fid=6, fibonacci_uncached(1)</title>
<ellipse fill="none" stroke="black" cx="603.64" cy="-105" rx="143.77" ry="18"/>
<text text-anchor="middle" x="603.64" y="-101.3" font-family="Times,serif" font-size="14.00">fid=6, fibonacci_uncached(1)</text>
</g>
<!-- fid=2, fibonacci_uncached(3)&#45;&gt;fid=6, fibonacci_uncached(1) -->
<g id="edge9" class="edge">
<title>fid=2, fibonacci_uncached(3)&#45;&gt;fid=6, fibonacci_uncached(1)</title>
<path fill="none" stroke="blue" d="M556.56,-174.02C546.31,-164.62 538.07,-152.53 544.64,-141 547.36,-136.21 551.03,-132.01 555.21,-128.35"/>
<polygon fill="blue" stroke="blue" points="557.33,-131.13 563.19,-122.3 553.1,-125.55 557.33,-131.13"/>
<text text-anchor="middle" x="570.14" y="-144.8" font-family="Times,serif" font-size="14.00" fill="blue">seq=9,</text>
</g>
<!-- fid=3, fibonacci_uncached(2)&#45;&gt;fid=2, fibonacci_uncached(3) -->
<g id="edge8" class="edge">
<title>fid=3, fibonacci_uncached(2)&#45;&gt;fid=2, fibonacci_uncached(3)</title>
<path fill="none" stroke="red" d="M331.85,-122.76C354.22,-133.5 384.64,-147.05 412.64,-156 436.58,-163.65 462.99,-170.06 487.64,-175.22"/>
<polygon fill="red" stroke="red" points="487.22,-178.71 497.72,-177.28 488.62,-171.85 487.22,-178.71"/>
<text text-anchor="middle" x="475.64" y="-144.8" font-family="Times,serif" font-size="14.00" fill="red">seq=8, ret=None</text>
</g>
<!-- fid=4, fibonacci_uncached(1) -->
<g id="node5" class="node">
<title>fid=4, fibonacci_uncached(1)</title>
<ellipse fill="none" stroke="black" cx="143.64" cy="-18" rx="143.77" ry="18"/>
<text text-anchor="middle" x="143.64" y="-14.3" font-family="Times,serif" font-size="14.00">fid=4, fibonacci_uncached(1)</text>
</g>
<!-- fid=3, fibonacci_uncached(2)&#45;&gt;fid=4, fibonacci_uncached(1) -->
<g id="edge4" class="edge">
<title>fid=3, fibonacci_uncached(2)&#45;&gt;fid=4, fibonacci_uncached(1)</title>
<path fill="none" stroke="blue" d="M207.47,-91.05C182.12,-85.63 159.17,-78.37 150.64,-69 145.08,-62.89 142.66,-54.51 141.83,-46.35"/>
<polygon fill="blue" stroke="blue" points="145.32,-46.21 141.5,-36.33 138.33,-46.44 145.32,-46.21"/>
<text text-anchor="middle" x="176.14" y="-57.8" font-family="Times,serif" font-size="14.00" fill="blue">seq=4,</text>
</g>
<!-- fid=5, fibonacci_uncached(0) -->
<g id="node6" class="node">
<title>fid=5, fibonacci_uncached(0)</title>
<ellipse fill="none" stroke="black" cx="448.64" cy="-18" rx="143.77" ry="18"/>
<text text-anchor="middle" x="448.64" y="-14.3" font-family="Times,serif" font-size="14.00">fid=5, fibonacci_uncached(0)</text>
</g>
<!-- fid=3, fibonacci_uncached(2)&#45;&gt;fid=5, fibonacci_uncached(0) -->
<g id="edge6" class="edge">
<title>fid=3, fibonacci_uncached(2)&#45;&gt;fid=5, fibonacci_uncached(0)</title>
<path fill="none" stroke="blue" d="M324.17,-87.14C345.72,-72.92 373.3,-54.75 374.64,-54 383.37,-49.09 392.91,-44.23 402.14,-39.77"/>
<polygon fill="blue" stroke="blue" points="403.7,-42.9 411.23,-35.45 400.7,-36.58 403.7,-42.9"/>
<text text-anchor="middle" x="400.14" y="-57.8" font-family="Times,serif" font-size="14.00" fill="blue">seq=6,</text>
</g>
<!-- fid=4, fibonacci_uncached(1)&#45;&gt;fid=3, fibonacci_uncached(2) -->
<g id="edge5" class="edge">
<title>fid=4, fibonacci_uncached(1)&#45;&gt;fid=3, fibonacci_uncached(2)</title>
<path fill="none" stroke="red" d="M172.15,-35.78C181.6,-41.45 192.14,-47.9 201.64,-54 211.6,-60.39 213.35,-63.15 223.64,-69 232.35,-73.96 241.88,-78.81 251.14,-83.25"/>
<polygon fill="red" stroke="red" points="249.72,-86.46 260.26,-87.54 252.7,-80.12 249.72,-86.46"/>
<text text-anchor="middle" x="286.64" y="-57.8" font-family="Times,serif" font-size="14.00" fill="red">seq=5, ret=None</text>
</g>
<!-- fid=5, fibonacci_uncached(0)&#45;&gt;fid=3, fibonacci_uncached(2) -->
<g id="edge7" class="edge">
<title>fid=5, fibonacci_uncached(0)&#45;&gt;fid=3, fibonacci_uncached(2)</title>
<path fill="none" stroke="red" d="M444.74,-36.11C441.41,-47 435.54,-60.59 425.64,-69 416.88,-76.44 406.66,-82.32 395.89,-86.94"/>
<polygon fill="red" stroke="red" points="394.35,-83.79 386.31,-90.7 396.9,-90.31 394.35,-83.79"/>
<text text-anchor="middle" x="500.64" y="-57.8" font-family="Times,serif" font-size="14.00" fill="red">seq=7, ret=None</text>
</g>
<!-- fid=6, fibonacci_uncached(1)&#45;&gt;fid=2, fibonacci_uncached(3) -->
<g id="edge10" class="edge">
<title>fid=6, fibonacci_uncached(1)&#45;&gt;fid=2, fibonacci_uncached(3)</title>
<path fill="none" stroke="red" d="M601.93,-123.35C600.7,-133.08 598.72,-145.36 595.64,-156 594.83,-158.8 593.85,-161.67 592.79,-164.51"/>
<polygon fill="red" stroke="red" points="589.51,-163.28 588.98,-173.86 595.99,-165.92 589.51,-163.28"/>
<text text-anchor="middle" x="667.14" y="-144.8" font-family="Times,serif" font-size="14.00" fill="red">seq=10, ret=None</text>
</g>
<!-- fid=7, fibonacci_uncached(2)&#45;&gt;fid=1, fibonacci_uncached(4) -->
<g id="edge17" class="edge">
<title>fid=7, fibonacci_uncached(2)&#45;&gt;fid=1, fibonacci_uncached(4)</title>
<path fill="none" stroke="red" d="M971.68,-210.04C969.24,-220.36 964.95,-233.35 957.64,-243 954.27,-247.44 950.18,-251.52 945.79,-255.2"/>
<polygon fill="red" stroke="red" points="943.49,-252.54 937.65,-261.38 947.73,-258.11 943.49,-252.54"/>
<text text-anchor="middle" x="1033.14" y="-231.8" font-family="Times,serif" font-size="14.00" fill="red">seq=17, ret=None</text>
</g>
<!-- fid=8, fibonacci_uncached(1) -->
<g id="node9" class="node">
<title>fid=8, fibonacci_uncached(1)</title>
<ellipse fill="none" stroke="black" cx="908.64" cy="-105" rx="143.77" ry="18"/>
<text text-anchor="middle" x="908.64" y="-101.3" font-family="Times,serif" font-size="14.00">fid=8, fibonacci_uncached(1)</text>
</g>
<!-- fid=7, fibonacci_uncached(2)&#45;&gt;fid=8, fibonacci_uncached(1) -->
<g id="edge13" class="edge">
<title>fid=7, fibonacci_uncached(2)&#45;&gt;fid=8, fibonacci_uncached(1)</title>
<path fill="none" stroke="blue" d="M913.94,-175.54C905.13,-170.7 897.17,-164.34 891.64,-156 886.9,-148.86 887.89,-140.27 891.05,-132.24"/>
<polygon fill="blue" stroke="blue" points="894.23,-133.71 895.55,-123.2 887.96,-130.59 894.23,-133.71"/>
<text text-anchor="middle" x="921.64" y="-144.8" font-family="Times,serif" font-size="14.00" fill="blue">seq=13,</text>
</g>
<!-- fid=9, fibonacci_uncached(0) -->
<g id="node10" class="node">
<title>fid=9, fibonacci_uncached(0)</title>
<ellipse fill="none" stroke="black" cx="1213.64" cy="-105" rx="143.77" ry="18"/>
<text text-anchor="middle" x="1213.64" y="-101.3" font-family="Times,serif" font-size="14.00">fid=9, fibonacci_uncached(0)</text>
</g>
<!-- fid=7, fibonacci_uncached(2)&#45;&gt;fid=9, fibonacci_uncached(0) -->
<g id="edge15" class="edge">
<title>fid=7, fibonacci_uncached(2)&#45;&gt;fid=9, fibonacci_uncached(0)</title>
<path fill="none" stroke="blue" d="M1036.59,-175.68C1056.89,-170.12 1079.42,-163.38 1099.64,-156 1114.77,-150.48 1117.91,-147.53 1132.64,-141 1143.36,-136.25 1154.92,-131.21 1165.85,-126.47"/>
<polygon fill="blue" stroke="blue" points="1167.46,-129.59 1175.25,-122.41 1164.69,-123.16 1167.46,-129.59"/>
<text text-anchor="middle" x="1162.64" y="-144.8" font-family="Times,serif" font-size="14.00" fill="blue">seq=15,</text>
</g>
<!-- fid=8, fibonacci_uncached(1)&#45;&gt;fid=7, fibonacci_uncached(2) -->
<g id="edge14" class="edge">
<title>fid=8, fibonacci_uncached(1)&#45;&gt;fid=7, fibonacci_uncached(2)</title>
<path fill="none" stroke="red" d="M933.18,-122.79C939.75,-128.08 946.45,-134.31 951.64,-141 957.05,-147.98 961.55,-156.44 965.09,-164.39"/>
<polygon fill="red" stroke="red" points="961.89,-165.81 968.94,-173.72 968.36,-163.14 961.89,-165.81"/>
<text text-anchor="middle" x="1028.14" y="-144.8" font-family="Times,serif" font-size="14.00" fill="red">seq=14, ret=None</text>
</g>
<!-- fid=9, fibonacci_uncached(0)&#45;&gt;fid=7, fibonacci_uncached(2) -->
<g id="edge16" class="edge">
<title>fid=9, fibonacci_uncached(0)&#45;&gt;fid=7, fibonacci_uncached(2)</title>
<path fill="none" stroke="red" d="M1210.76,-123.44C1208,-134.47 1202.7,-148.09 1192.64,-156 1177.91,-167.58 1142.63,-175.42 1104.66,-180.69"/>
<polygon fill="red" stroke="red" points="1103.88,-177.26 1094.42,-182.04 1104.8,-184.2 1103.88,-177.26"/>
<text text-anchor="middle" x="1272.14" y="-144.8" font-family="Times,serif" font-size="14.00" fill="red">seq=16, ret=None</text>
</g>
<!-- fid=10, fibonacci_uncached(3)&#45;&gt;fid=0, fibonacci_uncached(n=5) -->
<g id="edge28" class="edge">
<title>fid=10, fibonacci_uncached(3)&#45;&gt;fid=0, fibonacci_uncached(n=5)</title>
<path fill="none" stroke="red" d="M1451.69,-297.02C1446.25,-308.16 1437.6,-322.07 1425.64,-330 1412.75,-338.55 1384.34,-345.51 1353.42,-350.91"/>
<polygon fill="red" stroke="red" points="1352.59,-347.5 1343.31,-352.61 1353.75,-354.4 1352.59,-347.5"/>
<text text-anchor="middle" x="1509.14" y="-318.8" font-family="Times,serif" font-size="14.00" fill="red">seq=28, ret=None</text>
</g>
<!-- fid=11, fibonacci_uncached(2) -->
<g id="node12" class="node">
<title>fid=11, fibonacci_uncached(2)</title>
<ellipse fill="none" stroke="black" cx="1491.64" cy="-192" rx="149.47" ry="18"/>
<text text-anchor="middle" x="1491.64" y="-188.3" font-family="Times,serif" font-size="14.00">fid=11, fibonacci_uncached(2)</text>
</g>
<!-- fid=10, fibonacci_uncached(3)&#45;&gt;fid=11, fibonacci_uncached(2) -->
<g id="edge20" class="edge">
<title>fid=10, fibonacci_uncached(3)&#45;&gt;fid=11, fibonacci_uncached(2)</title>
<path fill="none" stroke="blue" d="M1431.84,-261.13C1420.45,-251.76 1411.29,-239.67 1418.64,-228 1421.85,-222.89 1426.04,-218.52 1430.79,-214.77"/>
<polygon fill="blue" stroke="blue" points="1432.92,-217.55 1439.22,-209.03 1428.99,-211.76 1432.92,-217.55"/>
<text text-anchor="middle" x="1448.64" y="-231.8" font-family="Times,serif" font-size="14.00" fill="blue">seq=20,</text>
</g>
<!-- fid=14, fibonacci_uncached(1) -->
<g id="node15" class="node">
<title>fid=14, fibonacci_uncached(1)</title>
<ellipse fill="none" stroke="black" cx="1808.64" cy="-192" rx="149.47" ry="18"/>
<text text-anchor="middle" x="1808.64" y="-188.3" font-family="Times,serif" font-size="14.00">fid=14, fibonacci_uncached(1)</text>
</g>
<!-- fid=10, fibonacci_uncached(3)&#45;&gt;fid=14, fibonacci_uncached(1) -->
<g id="edge26" class="edge">
<title>fid=10, fibonacci_uncached(3)&#45;&gt;fid=14, fibonacci_uncached(1)</title>
<path fill="none" stroke="blue" d="M1532.35,-263.27C1560.93,-257.32 1593.89,-250.17 1623.64,-243 1663.7,-233.35 1708.3,-221.33 1743.67,-211.5"/>
<polygon fill="blue" stroke="blue" points="1744.7,-214.84 1753.39,-208.78 1742.82,-208.1 1744.7,-214.84"/>
<text text-anchor="middle" x="1710.64" y="-231.8" font-family="Times,serif" font-size="14.00" fill="blue">seq=26,</text>
</g>
<!-- fid=11, fibonacci_uncached(2)&#45;&gt;fid=10, fibonacci_uncached(3) -->
<g id="edge25" class="edge">
<title>fid=11, fibonacci_uncached(2)&#45;&gt;fid=10, fibonacci_uncached(3)</title>
<path fill="none" stroke="red" d="M1488.38,-210.03C1486.22,-219.87 1482.97,-232.37 1478.64,-243 1477.4,-246.05 1475.94,-249.15 1474.38,-252.2"/>
<polygon fill="red" stroke="red" points="1471.29,-250.56 1469.55,-261.01 1477.43,-253.93 1471.29,-250.56"/>
<text text-anchor="middle" x="1552.14" y="-231.8" font-family="Times,serif" font-size="14.00" fill="red">seq=25, ret=None</text>
</g>
<!-- fid=12, fibonacci_uncached(1) -->
<g id="node13" class="node">
<title>fid=12, fibonacci_uncached(1)</title>
<ellipse fill="none" stroke="black" cx="1524.64" cy="-105" rx="149.47" ry="18"/>
<text text-anchor="middle" x="1524.64" y="-101.3" font-family="Times,serif" font-size="14.00">fid=12, fibonacci_uncached(1)</text>
</g>
<!-- fid=11, fibonacci_uncached(2)&#45;&gt;fid=12, fibonacci_uncached(1) -->
<g id="edge21" class="edge">
<title>fid=11, fibonacci_uncached(2)&#45;&gt;fid=12, fibonacci_uncached(1)</title>
<path fill="none" stroke="blue" d="M1464.84,-174.13C1453.45,-164.76 1444.29,-152.67 1451.64,-141 1454.85,-135.89 1459.04,-131.52 1463.79,-127.77"/>
<polygon fill="blue" stroke="blue" points="1465.92,-130.55 1472.22,-122.03 1461.99,-124.76 1465.92,-130.55"/>
<text text-anchor="middle" x="1481.64" y="-144.8" font-family="Times,serif" font-size="14.00" fill="blue">seq=21,</text>
</g>
<!-- fid=13, fibonacci_uncached(0) -->
<g id="node14" class="node">
<title>fid=13, fibonacci_uncached(0)</title>
<ellipse fill="none" stroke="black" cx="1841.64" cy="-105" rx="149.47" ry="18"/>
<text text-anchor="middle" x="1841.64" y="-101.3" font-family="Times,serif" font-size="14.00">fid=13, fibonacci_uncached(0)</text>
</g>
<!-- fid=11, fibonacci_uncached(2)&#45;&gt;fid=13, fibonacci_uncached(0) -->
<g id="edge23" class="edge">
<title>fid=11, fibonacci_uncached(2)&#45;&gt;fid=13, fibonacci_uncached(0)</title>
<path fill="none" stroke="blue" d="M1565.35,-176.27C1593.93,-170.32 1626.89,-163.17 1656.64,-156 1696.7,-146.35 1741.3,-134.33 1776.67,-124.5"/>
<polygon fill="blue" stroke="blue" points="1777.7,-127.84 1786.39,-121.78 1775.82,-121.1 1777.7,-127.84"/>
<text text-anchor="middle" x="1743.64" y="-144.8" font-family="Times,serif" font-size="14.00" fill="blue">seq=23,</text>
</g>
<!-- fid=12, fibonacci_uncached(1)&#45;&gt;fid=11, fibonacci_uncached(2) -->
<g id="edge22" class="edge">
<title>fid=12, fibonacci_uncached(1)&#45;&gt;fid=11, fibonacci_uncached(2)</title>
<path fill="none" stroke="red" d="M1521.38,-123.03C1519.22,-132.87 1515.97,-145.37 1511.64,-156 1510.4,-159.05 1508.94,-162.15 1507.38,-165.2"/>
<polygon fill="red" stroke="red" points="1504.29,-163.56 1502.55,-174.01 1510.43,-166.93 1504.29,-163.56"/>
<text text-anchor="middle" x="1585.14" y="-144.8" font-family="Times,serif" font-size="14.00" fill="red">seq=22, ret=None</text>
</g>
<!-- fid=13, fibonacci_uncached(0)&#45;&gt;fid=11, fibonacci_uncached(2) -->
<g id="edge24" class="edge">
<title>fid=13, fibonacci_uncached(0)&#45;&gt;fid=11, fibonacci_uncached(2)</title>
<path fill="none" stroke="red" d="M1825.1,-123.09C1813.06,-134.41 1795.75,-148.5 1777.64,-156 1769.5,-159.37 1683.65,-169.64 1608.12,-178.18"/>
<polygon fill="red" stroke="red" points="1607.56,-174.73 1598.02,-179.32 1608.35,-181.68 1607.56,-174.73"/>
<text text-anchor="middle" x="1870.14" y="-144.8" font-family="Times,serif" font-size="14.00" fill="red">seq=24, ret=None</text>
</g>
<!-- fid=14, fibonacci_uncached(1)&#45;&gt;fid=10, fibonacci_uncached(3) -->
<g id="edge27" class="edge">
<title>fid=14, fibonacci_uncached(1)&#45;&gt;fid=10, fibonacci_uncached(3)</title>
<path fill="none" stroke="red" d="M1792.1,-210.09C1780.06,-221.41 1762.75,-235.5 1744.64,-243 1717.33,-254.31 1654.29,-262.63 1594.33,-268.32"/>
<polygon fill="red" stroke="red" points="1593.98,-264.84 1584.35,-269.24 1594.63,-271.81 1593.98,-264.84"/>
<text text-anchor="middle" x="1837.14" y="-231.8" font-family="Times,serif" font-size="14.00" fill="red">seq=27, ret=None</text>
</g>
</g>
</svg>
