<?xml version="1.0" encoding="UTF-8" standalone="no"?>
<!DOCTYPE svg PUBLIC "-//W3C//DTD SVG 1.1//EN"
 "http://www.w3.org/Graphics/SVG/1.1/DTD/svg11.dtd">
<!-- Generated by graphviz version 2.43.0 (0)
 -->
<!-- Title: %3 Pages: 1 -->
<svg width="658pt" height="332pt"
 viewBox="0.00 0.00 657.87 332.00" xmlns="http://www.w3.org/2000/svg" xmlns:xlink="http://www.w3.org/1999/xlink">
<g id="graph0" class="graph" transform="scale(1 1) rotate(0) translate(4 328)">
<title>%3</title>
<polygon fill="white" stroke="transparent" points="-4,4 -4,-328 653.87,-328 653.87,4 -4,4"/>
<!-- fibonacci_uncached(n=5), count=1 -->
<g id="node1" class="node">
<title>fibonacci_uncached(n=5), count=1</title>
<ellipse fill="none" stroke="black" cx="250.94" cy="-18" rx="171.67" ry="18"/>
<text text-anchor="middle" x="250.94" y="-14.3" font-family="Times,serif" font-size="14.00">fibonacci_uncached(n=5), count=1</text>
</g>
<!-- fibonacci_uncached(4), count=1 -->
<g id="node2" class="node">
<title>fibonacci_uncached(4), count=1</title>
<ellipse fill="none" stroke="black" cx="343.94" cy="-90" rx="157.87" ry="18"/>
<text text-anchor="middle" x="343.94" y="-86.3" font-family="Times,serif" font-size="14.00">fibonacci_uncached(4), count=1</text>
</g>
<!-- fibonacci_uncached(4), count=1&#45;&gt;fibonacci_uncached(n=5), count=1 -->
<g id="edge1" class="edge">
<title>fibonacci_uncached(4), count=1&#45;&gt;fibonacci_uncached(n=5), count=1</title>
<path fill="none" stroke="black" d="M321.42,-72.05C309.52,-63.09 294.72,-51.96 281.76,-42.2"/>
<polygon fill="black" stroke="black" points="283.66,-39.25 273.56,-36.03 279.45,-44.84 283.66,-39.25"/>
</g>
<!-- fibonacci_uncached(3), count=2 -->
<g id="node3" class="node">
<title>fibonacci_uncached(3), count=2</title>
<ellipse fill="none" stroke="black" cx="157.94" cy="-162" rx="157.87" ry="18"/>
<text text-anchor="middle" x="157.94" y="-158.3" font-family="Times,serif" font-size="14.00">fibonacci_uncached(3), count=2</text>
</g>
<!-- fibonacci_uncached(3), count=2&#45;&gt;fibonacci_uncached(n=5), count=1 -->
<g id="edge3" class="edge">
<title>fibonacci_uncached(3), count=2&#45;&gt;fibonacci_uncached(n=5), count=1</title>
<path fill="none" stroke="black" d="M158,-143.87C158.84,-124.85 162.57,-93.94 176.94,-72 184.95,-59.77 196.84,-49.45 208.75,-41.27"/>
<polygon fill="black" stroke="black" points="210.88,-44.06 217.38,-35.69 207.08,-38.18 210.88,-44.06"/>
</g>
<!-- fibonacci_uncached(3), count=2&#45;&gt;fibonacci_uncached(4), count=1 -->
<g id="edge2" class="edge">
<title>fibonacci_uncached(3), count=2&#45;&gt;fibonacci_uncached(4), count=1</title>
<path fill="none" stroke="black" d="M201.54,-144.59C228.15,-134.58 262.35,-121.7 290.57,-111.08"/>
<polygon fill="black" stroke="black" points="292.15,-114.23 300.28,-107.43 289.69,-107.68 292.15,-114.23"/>
</g>
<!-- fibonacci_uncached(2), count=3 -->
<g id="node4" class="node">
<title>fibonacci_uncached(2), count=3</title>
<ellipse fill="none" stroke="black" cx="343.94" cy="-234" rx="157.87" ry="18"/>
<text text-anchor="middle" x="343.94" y="-230.3" font-family="Times,serif" font-size="14.00">fibonacci_uncached(2), count=3</text>
</g>
<!-- fibonacci_uncached(2), count=3&#45;&gt;fibonacci_uncached(4), count=1 -->
<g id="edge5" class="edge">
<title>fibonacci_uncached(2), count=3&#45;&gt;fibonacci_uncached(4), count=1</title>
<path fill="none" stroke="black" d="M343.94,-215.87C343.94,-191.67 343.94,-147.21 343.94,-118.39"/>
<polygon fill="black" stroke="black" points="347.44,-118.19 343.94,-108.19 340.44,-118.19 347.44,-118.19"/>
</g>
<!-- fibonacci_uncached(2), count=3&#45;&gt;fibonacci_uncached(3), count=2 -->
<g id="edge4" class="edge">
<title>fibonacci_uncached(2), count=3&#45;&gt;fibonacci_uncached(3), count=2</title>
<path fill="none" stroke="black" d="M300.33,-216.59C273.72,-206.58 239.52,-193.7 211.3,-183.08"/>
<polygon fill="black" stroke="black" points="212.19,-179.68 201.59,-179.43 209.72,-186.23 212.19,-179.68"/>
</g>
<!-- fibonacci_uncached(1), count=5 -->
<g id="node5" class="node">
<title>fibonacci_uncached(1), count=5</title>
<ellipse fill="none" stroke="black" cx="157.94" cy="-306" rx="157.87" ry="18"/>
<text text-anchor="middle" x="157.94" y="-302.3" font-family="Times,serif" font-size="14.00">fibonacci_uncached(1), count=5</text>
</g>
<!-- fibonacci_uncached(1), count=5&#45;&gt;fibonacci_uncached(3), count=2 -->
<g id="edge7" class="edge">
<title>fibonacci_uncached(1), count=5&#45;&gt;fibonacci_uncached(3), count=2</title>
<path fill="none" stroke="black" d="M157.94,-287.87C157.94,-263.67 157.94,-219.21 157.94,-190.39"/>
<polygon fill="black" stroke="black" points="161.44,-190.19 157.94,-180.19 154.44,-190.19 161.44,-190.19"/>
</g>
<!-- fibonacci_uncached(1), count=5&#45;&gt;fibonacci_uncached(2), count=3 -->
<g id="edge6" class="edge">
<title>fibonacci_uncached(1), count=5&#45;&gt;fibonacci_uncached(2), count=3</title>
<path fill="none" stroke="black" d="M201.54,-288.59C228.15,-278.58 262.35,-265.7 290.57,-255.08"/>
<polygon fill="black" stroke="black" points="292.15,-258.23 300.28,-251.43 289.69,-251.68 292.15,-258.23"/>
</g>
<!-- fibonacci_uncached(0), count=3 -->
<g id="node6" class="node">
<title>fibonacci_uncached(0), count=3</title>
<ellipse fill="none" stroke="black" cx="491.94" cy="-306" rx="157.87" ry="18"/>
<text text-anchor="middle" x="491.94" y="-302.3" font-family="Times,serif" font-size="14.00">fibonacci_uncached(0), count=3</text>
</g>
<!-- fibonacci_uncached(0), count=3&#45;&gt;fibonacci_uncached(2), count=3 -->
<g id="edge8" class="edge">
<title>fibonacci_uncached(0), count=3&#45;&gt;fibonacci_uncached(2), count=3</title>
<path fill="none" stroke="black" d="M456.86,-288.41C436.29,-278.68 410.12,-266.3 388.14,-255.91"/>
<polygon fill="black" stroke="black" points="389.55,-252.7 379.01,-251.59 386.56,-259.03 389.55,-252.7"/>
</g>
</g>
</svg>
