<?xml version="1.0" encoding="UTF-8" standalone="no"?>
<!DOCTYPE svg PUBLIC "-//W3C//DTD SVG 1.1//EN"
 "http://www.w3.org/Graphics/SVG/1.1/DTD/svg11.dtd">
<!-- Generated by graphviz version 2.43.0 (0)
 -->
<!-- Title: %3 Pages: 1 -->
<svg width="658pt" height="332pt"
 viewBox="0.00 0.00 657.87 332.00" xmlns="http://www.w3.org/2000/svg" xmlns:xlink="http://www.w3.org/1999/xlink">
<g id="graph0" class="graph" transform="scale(1 1) rotate(0) translate(4 328)">
<title>%3</title>
<polygon fill="white" stroke="transparent" points="-4,4 -4,-328 653.87,-328 653.87,4 -4,4"/>
<!-- fibonacci_uncached(n=5), count=1 -->
<g id="node1" class="node">
<title>fibonacci_uncached(n=5), count=1</title>
<ellipse fill="none" stroke="black" cx="250.94" cy="-306" rx="171.67" ry="18"/>
<text text-anchor="middle" x="250.94" y="-302.3" font-family="Times,serif" font-size="14.00">fibonacci_uncached(n=5), count=1</text>
</g>
<!-- fibonacci_uncached(4), count=1 -->
<g id="node2" class="node">
<title>fibonacci_uncached(4), count=1</title>
<ellipse fill="none" stroke="black" cx="343.94" cy="-234" rx="157.87" ry="18"/>
<text text-anchor="middle" x="343.94" y="-230.3" font-family="Times,serif" font-size="14.00">fibonacci_uncached(4), count=1</text>
</g>
<!-- fibonacci_uncached(n=5), count=1&#45;&gt;fibonacci_uncached(4), count=1 -->
<g id="edge1" class="edge">
<title>fibonacci_uncached(n=5), count=1&#45;&gt;fibonacci_uncached(4), count=1</title>
<path fill="none" stroke="black" d="M273.45,-288.05C285.36,-279.09 300.15,-267.96 313.11,-258.2"/>
<polygon fill="black" stroke="black" points="315.42,-260.84 321.31,-252.03 311.21,-255.25 315.42,-260.84"/>
</g>
<!-- fibonacci_uncached(3), count=2 -->
<g id="node3" class="node">
<title>fibonacci_uncached(3), count=2</title>
<ellipse fill="none" stroke="black" cx="157.94" cy="-162" rx="157.87" ry="18"/>
<text text-anchor="middle" x="157.94" y="-158.3" font-family="Times,serif" font-size="14.00">fibonacci_uncached(3), count=2</text>
</g>
<!-- fibonacci_uncached(n=5), count=1&#45;&gt;fibonacci_uncached(3), count=2 -->
<g id="edge2" class="edge">
<title>fibonacci_uncached(n=5), count=1&#45;&gt;fibonacci_uncached(3), count=2</title>
<path fill="none" stroke="black" d="M217.38,-288.31C202.84,-279.44 186.89,-267.2 176.94,-252 164.92,-233.66 160.35,-209.05 158.68,-190.36"/>
<polygon fill="black" stroke="black" points="162.16,-189.88 158,-180.13 155.17,-190.34 162.16,-189.88"/>
</g>
<!-- fibonacci_uncached(4), count=1&#45;&gt;fibonacci_uncached(3), count=2 -->
<g id="edge3" class="edge">
<title>fibonacci_uncached(4), count=1&#45;&gt;fibonacci_uncached(3), count=2</title>
<path fill="none" stroke="black" d="M300.33,-216.59C273.72,-206.58 239.52,-193.7 211.3,-183.08"/>
<polygon fill="black" stroke="black" points="212.19,-179.68 201.59,-179.43 209.72,-186.23 212.19,-179.68"/>
</g>
<!-- fibonacci_uncached(2), count=3 -->
<g id="node4" class="node">
<title>fibonacci_uncached(2), count=3</title>
<ellipse fill="none" stroke="black" cx="343.94" cy="-90" rx="157.87" ry="18"/>
<text text-anchor="middle" x="343.94" y="-86.3" font-family="Times,serif" font-size="14.00">fibonacci_uncached(2), count=3</text>
</g>
<!-- fibonacci_uncached(4), count=1&#45;&gt;fibonacci_uncached(2), count=3 -->
<g id="edge4" class="edge">
<title>fibonacci_uncached(4), count=1&#45;&gt;fibonacci_uncached(2), count=3</title>
<path fill="none" stroke="black" d="M343.94,-215.87C343.94,-191.67 343.94,-147.21 343.94,-118.39"/>
<polygon fill="black" stroke="black" points="347.44,-118.19 343.94,-108.19 340.44,-118.19 347.44,-118.19"/>
</g>
<!-- fibonacci_uncached(3), count=2&#45;&gt;fibonacci_uncached(2), count=3 -->
<g id="edge5" class="edge">
<title>fibonacci_uncached(3), count=2&#45;&gt;fibonacci_uncached(2), count=3</title>
<path fill="none" stroke="black" d="M201.54,-144.59C228.15,-134.58 262.35,-121.7 290.57,-111.08"/>
<polygon fill="black" stroke="black" points="292.15,-114.23 300.28,-107.43 289.69,-107.68 292.15,-114.23"/>
</g>
<!-- fibonacci_uncached(1), count=5 -->
<g id="node5" class="node">
<title>fibonacci_uncached(1), count=5</title>
<ellipse fill="none" stroke="black" cx="157.94" cy="-18" rx="157.87" ry="18"/>
<text text-anchor="middle" x="157.94" y="-14.3" font-family="Times,serif" font-size="14.00">fibonacci_uncached(1), count=5</text>
</g>
<!-- fibonacci_uncached(3), count=2&#45;&gt;fibonacci_uncached(1), count=5 -->
<g id="edge6" class="edge">
<title>fibonacci_uncached(3), count=2&#45;&gt;fibonacci_uncached(1), count=5</title>
<path fill="none" stroke="black" d="M157.94,-143.87C157.94,-119.67 157.94,-75.21 157.94,-46.39"/>
<polygon fill="black" stroke="black" points="161.44,-46.19 157.94,-36.19 154.44,-46.19 161.44,-46.19"/>
</g>
<!-- fibonacci_uncached(2), count=3&#45;&gt;fibonacci_uncached(1), count=5 -->
<g id="edge7" class="edge">
<title>fibonacci_uncached(2), count=3&#45;&gt;fibonacci_uncached(1), count=5</title>
<path fill="none" stroke="black" d="M300.33,-72.59C273.72,-62.58 239.52,-49.7 211.3,-39.08"/>
<polygon fill="black" stroke="black" points="212.19,-35.68 201.59,-35.43 209.72,-42.23 212.19,-35.68"/>
</g>
<!-- fibonacci_uncached(0), count=3 -->
<g id="node6" class="node">
<title>fibonacci_uncached(0), count=3</title>
<ellipse fill="none" stroke="black" cx="491.94" cy="-18" rx="157.87" ry="18"/>
<text text-anchor="middle" x="491.94" y="-14.3" font-family="Times,serif" font-size="14.00">fibonacci_uncached(0), count=3</text>
</g>
<!-- fibonacci_uncached(2), count=3&#45;&gt;fibonacci_uncached(0), count=3 -->
<g id="edge8" class="edge">
<title>fibonacci_uncached(2), count=3&#45;&gt;fibonacci_uncached(0), count=3</title>
<path fill="none" stroke="black" d="M379.01,-72.41C399.58,-62.68 425.76,-50.3 447.73,-39.91"/>
<polygon fill="black" stroke="black" points="449.31,-43.03 456.86,-35.59 446.32,-36.7 449.31,-43.03"/>
</g>
</g>
</svg>
